<?xml version="1.0" encoding="UTF-8"?>
<svg xmlns="http://www.w3.org/2000/svg" xmlns:xlink="http://www.w3.org/1999/xlink" width="2000px" height="1000px" viewBox="0 0 2000 1000" version="1.1">
<defs>
<radialGradient id="radial0" gradientUnits="userSpaceOnUse" cx="396" cy="281" fx="396" fy="281" r="514" gradientTransform="matrix(2.5,0,0,2.5,0,0)">
<stop offset="0" style="stop-color:rgb(86.666667%,6.666667%,53.333333%);stop-opacity:1;"/>
<stop offset="1" style="stop-color:rgb(20%,0%,0%);stop-opacity:1;"/>
</radialGradient>
<linearGradient id="linear0" gradientUnits="userSpaceOnUse" x1="400" y1="148" x2="400" y2="333" gradientTransform="matrix(2.5,0,0,2.5,0,0)">
<stop offset="0" style="stop-color:rgb(100%,66.666667%,20%);stop-opacity:0;"/>
<stop offset="1" style="stop-color:rgb(100%,66.666667%,20%);stop-opacity:0.192157;"/>
</linearGradient>
<linearGradient id="linear1" gradientUnits="userSpaceOnUse" x1="400" y1="148" x2="400" y2="333" gradientTransform="matrix(2.5,0,0,2.5,0,0)">
<stop offset="0" style="stop-color:rgb(100%,66.666667%,20%);stop-opacity:0;"/>
<stop offset="1" style="stop-color:rgb(100%,66.666667%,20%);stop-opacity:0.192157;"/>
</linearGradient>
<linearGradient id="linear2" gradientUnits="userSpaceOnUse" x1="400" y1="148" x2="400" y2="333" gradientTransform="matrix(2.5,0,0,2.5,0,0)">
<stop offset="0" style="stop-color:rgb(100%,66.666667%,20%);stop-opacity:0;"/>
<stop offset="1" style="stop-color:rgb(100%,66.666667%,20%);stop-opacity:0.192157;"/>
</linearGradient>
</defs>
<g id="surface1">
<rect x="0" y="0" width="2000" height="1000" style="fill:rgb(20%,0%,0%);fill-opacity:1;stroke:none;"/>
<rect x="0" y="0" width="2000" height="1000" style="fill:url(#radial0);stroke:none;"/>
<path style=" stroke:none;fill-rule:nonzero;fill:url(#linear0);" d="M 1418.75 152.503906 C 1418.75 566.710938 1082.964844 902.503906 668.75 902.503906 C 254.535156 902.503906 -81.25 566.710938 -81.25 152.503906 C -81.25 -261.710938 254.535156 -597.496094 668.75 -597.496094 C 1082.964844 -597.496094 1418.75 -261.710938 1418.75 152.503906 Z M 1418.75 152.503906 "/>
<path style=" stroke:none;fill-rule:nonzero;fill:url(#linear1);" d="M 2081.25 152.503906 C 2081.25 566.710938 1745.464844 902.503906 1331.25 902.503906 C 917.035156 902.503906 581.25 566.710938 581.25 152.503906 C 581.25 -261.710938 917.035156 -597.496094 1331.25 -597.496094 C 1745.464844 -597.496094 2081.25 -261.710938 2081.25 152.503906 Z M 2081.25 152.503906 "/>
<path style=" stroke:none;fill-rule:nonzero;fill:url(#linear2);" d="M 1750 75 C 1750 489.214844 1414.214844 825 1000 825 C 585.785156 825 250 489.214844 250 75 C 250 -339.214844 585.785156 -675 1000 -675 C 1414.214844 -675 1750 -339.214844 1750 75 Z M 1750 75 "/>
</g>
</svg>
