<?xml version="1.0" encoding="UTF-8"?>
<svg xmlns="http://www.w3.org/2000/svg" xmlns:xlink="http://www.w3.org/1999/xlink" width="200px" height="200px" viewBox="0 0 200 200" version="1.1">
<g id="surface1">
<path style=" stroke:none;fill-rule:nonzero;fill:rgb(0%,0%,0%);fill-opacity:1;" d="M 186 60.238281 C 182.722656 60.761719 180.039062 61.359375 178.722656 61.878906 L 177.199219 62.480469 L 179.597656 63.960938 C 184.199219 66.722656 188.679688 71.917969 190.640625 76.722656 L 191.519531 78.878906 L 192.558594 75.722656 C 193.878906 71.679688 194.402344 68.320312 194.402344 63.679688 L 194.402344 60 L 190.722656 60.039062 C 188.679688 60.082031 186.558594 60.160156 186 60.238281 Z M 186 60.238281 "/>
<path style=" stroke:none;fill-rule:nonzero;fill:rgb(0%,0%,0%);fill-opacity:1;" d="M 174.238281 63.800781 C 173.917969 64.121094 173.480469 64.402344 173.238281 64.402344 C 172.679688 64.402344 170 66 170 66.359375 C 170 66.519531 170.800781 66.839844 171.800781 67.121094 C 172.800781 67.402344 173.597656 67.761719 173.597656 68 C 173.597656 68.519531 173.238281 68.519531 170.597656 67.800781 C 168.839844 67.359375 168.160156 67.320312 167.597656 67.722656 C 166.917969 68.121094 167.121094 68.238281 169.238281 68.679688 C 178.121094 70.480469 184.359375 78.039062 184.402344 86.960938 L 184.441406 89.800781 L 185.597656 88.402344 C 186.238281 87.640625 187.597656 85.597656 188.640625 83.839844 C 190.441406 80.839844 190.480469 80.640625 190.039062 79.199219 C 188.359375 73.519531 183.441406 67.761719 177.558594 64.441406 C 175 63 175.039062 63 174.238281 63.800781 Z M 181.402344 68.402344 C 181.519531 68.597656 181.441406 68.800781 181.238281 68.800781 C 181 68.800781 180.800781 68.597656 180.800781 68.402344 C 180.800781 68.160156 180.878906 68 180.960938 68 C 181.082031 68 181.277344 68.160156 181.402344 68.402344 Z M 180.441406 72.402344 C 181.558594 73.519531 182.320312 74.597656 182.160156 74.839844 C 181.917969 75.277344 177.597656 71.359375 177.597656 70.722656 C 177.597656 69.960938 178.558594 70.558594 180.441406 72.402344 Z M 185.800781 73.199219 C 185.917969 73.402344 185.839844 73.597656 185.640625 73.597656 C 185.402344 73.597656 185.199219 73.402344 185.199219 73.199219 C 185.199219 72.960938 185.277344 72.800781 185.359375 72.800781 C 185.480469 72.800781 185.679688 72.960938 185.800781 73.199219 Z M 185.722656 81.441406 C 186.441406 83.878906 186.480469 84.839844 185.800781 84.839844 C 185.597656 84.839844 185.199219 83.878906 184.960938 82.722656 C 184.679688 81.558594 184.359375 80.160156 184.199219 79.640625 C 183.960938 78.917969 184 78.722656 184.441406 78.878906 C 184.722656 78.960938 185.320312 80.121094 185.722656 81.441406 Z M 185.722656 81.441406 "/>
<path style=" stroke:none;fill-rule:nonzero;fill:rgb(0%,0%,0%);fill-opacity:1;" d="M 112.917969 66.597656 C 112.402344 66.960938 111.839844 67.558594 111.640625 67.960938 C 111.402344 68.359375 110.359375 74 109.238281 80.519531 C 108.121094 87.039062 107 93.121094 106.761719 94 C 105.839844 97.039062 102.679688 99.839844 99.359375 100.558594 C 97.722656 100.917969 95.480469 100 94.558594 98.597656 C 93.878906 97.597656 93.878906 97.320312 94.558594 92.878906 C 95.359375 87.722656 95.960938 86.277344 97.320312 86.480469 C 98.082031 86.597656 98.238281 86.917969 98.402344 89 C 98.558594 91.160156 98.722656 91.441406 99.761719 91.960938 C 102.082031 93.039062 104.121094 90.960938 104.121094 87.480469 C 104.121094 83.441406 101.878906 81.199219 97.839844 81.199219 C 94.359375 81.199219 91.800781 82.761719 90.238281 85.878906 C 89.878906 86.558594 89.160156 89.800781 88.640625 93 C 87.558594 99.679688 86.839844 101 83.480469 102.722656 C 79.039062 105 74.800781 104 74.800781 100.679688 L 74.800781 99.359375 L 77.199219 99.519531 C 80.359375 99.761719 82.761719 98.839844 84.558594 96.761719 C 86.320312 94.679688 87 92.082031 86.402344 89.640625 C 85.558594 86.199219 83.160156 84.402344 79.402344 84.402344 C 76.441406 84.402344 74.238281 85.359375 72.480469 87.402344 C 70.761719 89.320312 70.480469 90.082031 69.558594 95.402344 C 68.359375 102.320312 68.558594 103.878906 70.878906 106.277344 C 74.640625 110.160156 83.679688 109.402344 88.960938 104.800781 L 90.441406 103.480469 L 92.039062 104.359375 C 95.160156 106.121094 100.519531 105.839844 104.359375 103.761719 C 106.039062 102.839844 106.199219 102.800781 107.441406 103.402344 C 108.917969 104.121094 110.480469 103.722656 111.160156 102.480469 C 111.402344 102.039062 112.199219 98.082031 112.960938 93.679688 C 114.640625 84 115.320312 82.402344 117.960938 82.402344 C 119.238281 82.402344 119.320312 83.722656 118.402344 89.277344 C 117.121094 96.878906 117.597656 98.917969 121.082031 100.480469 C 122.441406 101.082031 123.402344 101.238281 124.679688 101.039062 C 129.597656 100.359375 133.121094 96.320312 134.441406 89.722656 C 134.917969 87.441406 134.878906 87.160156 134.199219 86.402344 C 133.800781 85.960938 133.082031 85.597656 132.640625 85.597656 C 131.558594 85.597656 130 86.679688 130 87.402344 C 130 87.679688 129.640625 89.121094 129.199219 90.558594 C 128.320312 93.320312 126.597656 95.761719 125.199219 96.121094 C 124.199219 96.359375 123.121094 95.359375 123.359375 94.441406 C 123.480469 94.082031 123.960938 91.277344 124.441406 88.199219 L 125.320312 82.597656 L 124.480469 80.679688 C 123.800781 79.160156 123.277344 78.597656 121.917969 78 C 119.839844 77.039062 118.839844 77 117 77.761719 C 115.359375 78.480469 115.402344 78.679688 116.199219 73.800781 C 116.917969 69.402344 116.960938 67.960938 116.320312 67.082031 C 115.558594 66.121094 113.917969 65.878906 112.917969 66.597656 Z M 80.402344 89.960938 C 81 91.160156 80.878906 92.199219 79.960938 93.359375 C 79.320312 94.160156 78.800781 94.402344 77.519531 94.402344 L 75.878906 94.402344 L 76.121094 92.597656 C 76.199219 91.597656 76.640625 90.402344 77 90 C 77.917969 88.960938 79.839844 88.960938 80.402344 89.960938 Z M 80.402344 89.960938 "/>
<path style=" stroke:none;fill-rule:nonzero;fill:rgb(0%,0%,0%);fill-opacity:1;" d="M 164.839844 69.761719 C 164.359375 70.320312 164.480469 70.402344 166 70.402344 C 168.597656 70.402344 167.761719 71.320312 165 71.480469 C 162.320312 71.640625 161.640625 72.121094 158.722656 75.878906 C 157.121094 77.960938 157.082031 78 154.917969 78 C 152.878906 78 152.722656 78.082031 151.917969 79.441406 C 151.359375 80.402344 150.960938 80.722656 150.679688 80.441406 C 150.402344 80.160156 150.480469 79.722656 150.960938 79.039062 C 151.519531 78.160156 151.519531 78 151 78 C 149.441406 78 147.917969 82.960938 148.082031 87.679688 C 148.199219 90.761719 148.277344 91 149.082031 91.121094 C 149.558594 91.199219 152.800781 94.121094 156.640625 98.039062 C 162.160156 103.597656 163.558594 104.800781 164.480469 104.800781 C 165.199219 104.800781 165.597656 105 165.597656 105.402344 C 165.597656 105.800781 165.199219 106 164.402344 106 C 163.039062 106 162.761719 106.679688 164.082031 106.878906 C 165.359375 107.082031 165.480469 108 164.238281 108 C 163.597656 108 163.199219 108.238281 163.199219 108.597656 C 163.199219 109.960938 171.320312 109 174.800781 107.199219 L 176.402344 106.402344 L 176.402344 101.878906 L 176.441406 97.402344 L 178.238281 96 C 179.238281 95.238281 180.722656 93.878906 181.558594 92.960938 C 182.878906 91.558594 183.160156 90.960938 183.402344 88.960938 C 183.679688 86.402344 182.917969 81.722656 181.878906 79.761719 L 181.277344 78.640625 L 180.640625 79.917969 C 179.480469 82.160156 176.039062 83.160156 174.082031 81.761719 C 172.960938 81 172 79.160156 172 77.800781 C 172 76.679688 173.121094 74.402344 173.679688 74.402344 C 174.558594 74.402344 173.800781 73.597656 172.199219 72.839844 C 171.199219 72.359375 170.402344 71.800781 170.402344 71.597656 C 170.402344 70.917969 171.277344 71.160156 173.480469 72.359375 C 175.878906 73.679688 177.402344 73.402344 175.160156 72.039062 C 171.640625 69.878906 165.800781 68.597656 164.839844 69.761719 Z M 181.960938 83.082031 C 182.480469 84.960938 182.519531 86.402344 182.039062 86.402344 C 181.480469 86.402344 181.320312 86 181 83.679688 C 180.679688 81.199219 181.359375 80.800781 181.960938 83.082031 Z M 150 86 C 150 87.878906 149.878906 88.402344 149.402344 88.402344 C 148.761719 88.402344 148.558594 86.277344 149.039062 84.480469 C 149.519531 82.800781 150 83.597656 150 86 Z M 175.800781 104.800781 C 175.960938 105.039062 175.121094 105.640625 173.917969 106.160156 C 170.800781 107.558594 170 107.761719 170 107.082031 C 170 106.761719 170.761719 106.320312 171.722656 106.039062 C 172.640625 105.761719 173.839844 105.277344 174.402344 104.960938 C 175.640625 104.320312 175.519531 104.320312 175.800781 104.800781 Z M 175.800781 104.800781 "/>
<path style=" stroke:none;fill-rule:nonzero;fill:rgb(0%,0%,0%);fill-opacity:1;" d="M 57.402344 76.679688 C 45.800781 78.722656 44.722656 79.199219 45.359375 81.800781 C 45.800781 83.480469 46.800781 83.722656 50.640625 83 C 52.519531 82.640625 54.160156 82.441406 54.277344 82.519531 C 54.359375 82.640625 53.441406 88.960938 52.199219 96.558594 C 50.960938 104.199219 50 110.800781 50.082031 111.277344 C 50.160156 111.722656 50.679688 112.480469 51.277344 112.917969 C 52.480469 113.800781 53.761719 113.679688 55.199219 112.480469 C 56 111.839844 56.359375 110.199219 58.597656 96.640625 C 60.082031 87.640625 61.277344 81.402344 61.558594 81.238281 C 61.839844 81.039062 63.597656 80.679688 65.480469 80.402344 C 69.160156 79.878906 70.800781 78.878906 70.800781 77.199219 C 70.800781 76.121094 69.402344 74.800781 68.320312 74.839844 C 67.800781 74.878906 62.917969 75.679688 57.402344 76.679688 Z M 57.402344 76.679688 "/>
<path style=" stroke:none;fill-rule:nonzero;fill:rgb(0%,0%,0%);fill-opacity:1;" d="M 147.199219 78.480469 C 146.441406 78.679688 145.558594 79.082031 145.238281 79.402344 C 144.082031 80.558594 143.160156 87.679688 143.839844 90.277344 C 144.039062 91.039062 144.359375 91.199219 145.558594 91.199219 L 147 91.199219 L 147 87.082031 C 147.039062 83.597656 147.160156 82.640625 148.082031 80.480469 C 148.640625 79.121094 149 78 148.839844 78.039062 C 148.722656 78.039062 147.960938 78.238281 147.199219 78.480469 Z M 147.199219 78.480469 "/>
<path style=" stroke:none;fill-rule:nonzero;fill:rgb(0%,0%,0%);fill-opacity:1;" d="M 142.441406 81.722656 C 141.917969 82.320312 141.679688 82.917969 141.839844 83.320312 C 141.960938 83.722656 141.878906 84 141.597656 84 C 141.359375 84 141.277344 83.800781 141.402344 83.597656 C 141.519531 83.359375 141.558594 83.199219 141.441406 83.199219 C 140.878906 83.199219 140 85.761719 140 87.480469 C 140 90.519531 140.320312 91.199219 141.640625 91.199219 L 142.800781 91.199219 L 142.800781 87.277344 C 142.800781 85.160156 142.960938 82.800781 143.160156 82.082031 C 143.359375 81.402344 143.480469 80.800781 143.441406 80.800781 C 143.402344 80.800781 142.960938 81.238281 142.441406 81.722656 Z M 142.441406 81.722656 "/>
<path style=" stroke:none;fill-rule:nonzero;fill:rgb(0%,0%,0%);fill-opacity:1;" d="M 138.277344 88.679688 C 137.839844 89.082031 137.960938 91.199219 138.402344 91.199219 C 138.640625 91.199219 138.800781 90.558594 138.800781 89.800781 C 138.800781 88.359375 138.722656 88.199219 138.277344 88.679688 Z M 138.277344 88.679688 "/>
<path style=" stroke:none;fill-rule:nonzero;fill:rgb(0%,0%,0%);fill-opacity:1;" d="M 146.722656 101.039062 C 146.558594 101.160156 146.558594 101.519531 146.679688 101.839844 C 146.800781 102.238281 146.679688 102.320312 146.277344 102.160156 C 144.039062 101.320312 146.597656 104.917969 150 107.402344 C 151.960938 108.839844 153 108.960938 152.519531 107.722656 C 152.359375 107.277344 152.402344 107.160156 152.722656 107.359375 C 153 107.519531 153.402344 107.519531 153.597656 107.402344 C 153.839844 107.238281 153.320312 106.640625 152.441406 106 C 151.597656 105.359375 150 103.917969 148.917969 102.800781 C 147.839844 101.679688 146.839844 100.878906 146.722656 101.039062 Z M 149.597656 105.199219 C 149.597656 105.402344 149.519531 105.597656 149.441406 105.597656 C 149.320312 105.597656 149.121094 105.402344 149 105.199219 C 148.878906 104.960938 148.960938 104.800781 149.160156 104.800781 C 149.402344 104.800781 149.597656 104.960938 149.597656 105.199219 Z M 149.597656 105.199219 "/>
<path style=" stroke:none;fill-rule:nonzero;fill:rgb(0%,0%,0%);fill-opacity:1;" d="M 144 104.558594 C 144 105.121094 148.277344 109.277344 149.597656 110 C 151.082031 110.800781 150.761719 109.679688 149.199219 108.597656 C 148.320312 108 146.878906 106.722656 146 105.761719 C 144.238281 103.839844 144 103.722656 144 104.558594 Z M 144 104.558594 "/>
<path style=" stroke:none;fill-rule:nonzero;fill:rgb(0%,0%,0%);fill-opacity:1;" d="M 142.679688 107.121094 C 141.839844 109.277344 141.082031 112.800781 141.359375 113.121094 C 141.679688 113.402344 145.917969 112.359375 147.917969 111.519531 L 149.160156 111 L 146.238281 108.320312 L 143.277344 105.597656 Z M 142.679688 107.121094 "/>
<path style=" stroke:none;fill-rule:nonzero;fill:rgb(0%,0%,0%);fill-opacity:1;" d="M 172.238281 109.082031 C 170.320312 109.761719 168.558594 110.039062 166.359375 110.082031 L 163.199219 110.121094 L 163.199219 112.800781 L 165.519531 112.800781 C 168.441406 112.800781 172.320312 112.121094 173.480469 111.402344 C 174.160156 110.917969 175.597656 108.761719 175.597656 108.121094 C 175.597656 107.917969 175.238281 108.039062 172.238281 109.082031 Z M 169.597656 110.960938 C 169.597656 111.082031 169.441406 111.277344 169.199219 111.402344 C 169 111.519531 168.800781 111.441406 168.800781 111.238281 C 168.800781 111 169 110.800781 169.199219 110.800781 C 169.441406 110.800781 169.597656 110.878906 169.597656 110.960938 Z M 169.597656 110.960938 "/>
<path style=" stroke:none;fill-rule:nonzero;fill:rgb(0%,0%,0%);fill-opacity:1;" d="M 163.320312 114.597656 C 163.558594 115.238281 167 115.277344 168.441406 114.679688 C 169.761719 114.121094 169.722656 114.121094 166.519531 114.160156 C 164.519531 114.199219 163.238281 114.359375 163.320312 114.597656 Z M 163.320312 114.597656 "/>
<path style=" stroke:none;fill-rule:nonzero;fill:rgb(0%,0%,0%);fill-opacity:1;" d="M 133.160156 115.839844 C 130.480469 117.320312 129.441406 119.199219 128.402344 124.640625 C 127.320312 130.039062 126.039062 132.441406 123.320312 133.917969 C 119.960938 135.761719 116.359375 134.800781 116.082031 131.960938 C 115.917969 130.519531 116.597656 125.878906 117.238281 123.722656 C 117.640625 122.441406 118.800781 121.722656 119.640625 122.238281 C 119.917969 122.402344 120 123.121094 119.878906 124.121094 C 119.722656 125.402344 119.839844 125.878906 120.597656 126.640625 C 121.800781 127.839844 122.480469 127.839844 123.839844 126.679688 C 126 124.800781 125.402344 120.238281 122.679688 118.238281 C 120.082031 116.320312 115.160156 117.679688 113.121094 120.839844 C 112.082031 122.441406 110.402344 129.839844 110.402344 132.761719 C 110.402344 133.800781 110.039062 134.441406 108.800781 135.679688 C 106.878906 137.597656 105.839844 137.597656 105.679688 135.597656 C 105.640625 134.839844 106.121094 131.320312 106.761719 127.800781 C 107.722656 122.558594 107.839844 121.199219 107.480469 120.402344 C 106.839844 119.082031 104.722656 118.839844 103.199219 119.917969 C 102.359375 120.558594 101.722656 120.679688 100.277344 120.519531 C 97.800781 120.238281 95.121094 121.238281 93.800781 122.960938 C 93.082031 123.917969 92.558594 125.597656 91.761719 129.839844 C 91.160156 132.878906 90.359375 136 89.917969 136.679688 C 89.238281 137.800781 87.277344 139.597656 86.722656 139.597656 C 86.597656 139.597656 87 137.121094 87.597656 134.121094 C 89 127 88.558594 124.917969 85.480469 123.441406 C 83.722656 122.640625 82.320312 122.640625 80.761719 123.402344 C 79.679688 123.960938 79.480469 123.960938 78.722656 123.402344 C 77.480469 122.558594 76.640625 122.640625 75.402344 123.679688 C 74.441406 124.519531 74.160156 125.679688 71.597656 139 C 70.039062 146.917969 68.800781 153.761719 68.800781 154.277344 C 68.800781 156.238281 71.480469 157.121094 73.160156 155.679688 C 73.800781 155.160156 74.160156 153.878906 74.839844 150 L 75.722656 145 L 79.960938 145 C 84.640625 145 86.960938 144.402344 90.039062 142.441406 C 91.800781 141.359375 91.800781 141.359375 93 142.082031 C 93.761719 142.519531 94.960938 142.800781 96.238281 142.800781 C 97.878906 142.800781 98.597656 142.558594 100 141.558594 C 101.402344 140.519531 101.878906 140.359375 102.441406 140.722656 C 104.722656 142.160156 108.519531 141.597656 111.402344 139.402344 C 112.878906 138.238281 113.359375 138.082031 114 138.402344 C 117.722656 140.402344 124.402344 139.199219 127.878906 135.878906 L 129.199219 134.640625 L 130.878906 135.640625 C 132.359375 136.480469 133.121094 136.597656 136.199219 136.597656 C 139.320312 136.597656 140.121094 136.441406 142.320312 135.441406 C 145.761719 133.839844 148.441406 130.878906 149.597656 127.402344 C 150.558594 124.480469 150.402344 123.320312 148.960938 122.960938 C 147.558594 122.597656 146.238281 123.640625 145.679688 125.480469 C 144.199219 130.480469 138.238281 133.800781 134.441406 131.800781 C 133.277344 131.238281 132.597656 129.761719 133.039062 128.679688 C 133.199219 128.277344 133.640625 128.199219 134.722656 128.359375 C 139.558594 129.238281 143.761719 125.761719 143.761719 120.917969 C 143.761719 115.800781 138.121094 113.082031 133.160156 115.839844 Z M 138.082031 119.761719 C 138.597656 120.519531 138.441406 122.679688 137.839844 123.160156 C 137.039062 123.839844 134.558594 124.160156 134.238281 123.640625 C 133.800781 122.917969 134.761719 120.082031 135.640625 119.441406 C 136.519531 118.839844 137.558594 119 138.082031 119.761719 Z M 100.480469 125.277344 C 101.480469 126.121094 101.558594 127.277344 100.800781 132 C 100.039062 136.679688 99.160156 138.402344 97.558594 138.402344 C 96.082031 138.402344 95.960938 137.121094 96.800781 131.761719 C 97.640625 126.597656 98 125.441406 98.878906 125.082031 C 99.679688 124.761719 99.800781 124.761719 100.480469 125.277344 Z M 82.039062 127.597656 C 83.039062 128.160156 83.039062 129.800781 82.039062 135.082031 C 81 140.480469 80.558594 141.199219 78.402344 141.199219 C 76.839844 141.199219 76.722656 139.917969 77.800781 134.320312 C 78.640625 129.800781 78.960938 128.878906 79.800781 128.082031 C 81 127.082031 81 127.082031 82.039062 127.597656 Z M 82.039062 127.597656 "/>
<path style=" stroke:none;fill-rule:nonzero;fill:rgb(0%,0%,0%);fill-opacity:1;" d="M 60 115.558594 C 57.039062 116.519531 54.839844 118.402344 53.839844 120.878906 C 52.359375 124.441406 53.359375 126.917969 58.359375 131.800781 C 60.402344 133.761719 62.320312 135.878906 62.640625 136.480469 C 64.679688 140.320312 60.679688 144.800781 56.277344 143.558594 C 54.597656 143.121094 53.761719 142.082031 53.160156 139.800781 C 52.558594 137.597656 52.121094 137.199219 50.402344 137.199219 C 48.238281 137.199219 47.441406 138.238281 47.679688 140.800781 C 47.960938 143.519531 49.597656 145.878906 52.238281 147.277344 C 57.800781 150.277344 64.558594 148.359375 67.917969 142.800781 C 69 140.960938 69.199219 140.238281 69.199219 138.121094 C 69.199219 134.519531 68.238281 132.878906 63.597656 128.402344 C 59.160156 124.121094 58.558594 122.960938 60.039062 121.359375 C 61.320312 119.960938 62.761719 120.121094 64.402344 121.800781 C 67.558594 125.082031 71.238281 122.160156 68.722656 118.402344 C 67.082031 116.039062 62.800781 114.640625 60 115.558594 Z M 60 115.558594 "/>
<path style=" stroke:none;fill-rule:nonzero;fill:rgb(0%,0%,0%);fill-opacity:1;" d="M 163.199219 116.597656 C 163.199219 117.320312 163.519531 117.320312 164.800781 116.597656 L 165.800781 116.039062 L 164.519531 116 C 163.597656 116 163.199219 116.199219 163.199219 116.597656 Z M 163.199219 116.597656 "/>
</g>
</svg>
